HIERARCHY
ROOT hip
{
  OFFSET 0 0 0
  CHANNELS 6 Xposition Yposition Zposition Zrotation Yrotation Xrotation
  JOINT abdomen
  {
    OFFSET 0 20.6881 -0.73152
    CHANNELS 3 Zrotation Xrotation Yrotation
    JOINT chest
    {
      OFFSET 0 11.7043 -0.48768
      CHANNELS 3 Zrotation Xrotation Yrotation
      JOINT neck
      {
        OFFSET 0 22.1894 -2.19456
        CHANNELS 3 Zrotation Xrotation Yrotation
        JOINT head
        {
          OFFSET -0.24384 7.07133 1.2192
          CHANNELS 3 Zrotation Xrotation Yrotation
          JOINT leftEye
          {
            OFFSET 4.14528 8.04674 8.04672
            CHANNELS 3 Zrotation Xrotation Yrotation
            End Site
            {
              OFFSET 1 0 0
            }
          }
          JOINT rightEye
          {
            OFFSET -3.6576 8.04674 8.04672
            CHANNELS 3 Zrotation Xrotation Yrotation
            End Site
            {
              OFFSET 1 0 0
            }
          }
        }
      }
      JOINT rCollar
      {
        OFFSET -2.68224 19.2634 -4.8768
        CHANNELS 3 Zrotation Xrotation Yrotation
        JOINT rShldr
        {
          OFFSET -8.77824 -1.95073 1.46304
          CHANNELS 3 Zrotation Xrotation Yrotation
          JOINT rForeArm
          {
            OFFSET -28.1742 -1.7115 0.48768
            CHANNELS 3 Zrotation Xrotation Yrotation
            JOINT rHand
            {
              OFFSET -22.5879 0.773209 7.07136
              CHANNELS 3 Zrotation Xrotation Yrotation
              JOINT rThumb1
              {
                OFFSET -1.2192 -0.487915 3.41376
                CHANNELS 3 Zrotation Xrotation Yrotation
                JOINT rThumb2
                {
                  OFFSET -3.37035 -0.52449 3.41376
                  CHANNELS 3 Zrotation Xrotation Yrotation
                  End Site
                  {
                    OFFSET -1.78271 -1.18214 1.43049
                  }
                }
              }
              JOINT rIndex1
              {
                OFFSET -7.75947 0.938293 5.60832
                CHANNELS 3 Zrotation Xrotation Yrotation
                JOINT rIndex2
                {
                  OFFSET -2.54057 -0.884171 1.56538
                  CHANNELS 3 Zrotation Xrotation Yrotation
                  End Site
                  {
                    OFFSET -1.62519 -0.234802 1.16502
                  }
                }
              }
              JOINT rMid1
              {
                OFFSET -8.24714 1.18213 3.41376
                CHANNELS 3 Zrotation Xrotation Yrotation
                JOINT rMid2
                {
                  OFFSET -3.10165 -0.590103 1.0647
                  CHANNELS 3 Zrotation Xrotation Yrotation
                  End Site
                  {
                    OFFSET -2.48547 -0.328903 0.83742
                  }
                }
              }
              JOINT rRing1
              {
                OFFSET -8.82822 0.546677 1.51678
                CHANNELS 3 Zrotation Xrotation Yrotation
                JOINT rRing2
                {
                  OFFSET -2.60934 -0.819778 -0.0198488
                  CHANNELS 3 Zrotation Xrotation Yrotation
                  End Site
                  {
                    OFFSET -2.33842 -0.294052 0.168128
                  }
                }
              }
              JOINT rPinky1
              {
                OFFSET -8.27202 -0.0477905 -0.4584
                CHANNELS 3 Zrotation Xrotation Yrotation
                JOINT rPinky2
                {
                  OFFSET -1.82734 -0.647385 -0.700984
                  CHANNELS 3 Zrotation Xrotation Yrotation
                  End Site
                  {
                    OFFSET -1.69225 -0.51767 -0.607171
                  }
                }
              }
            }
          }
        }
      }
      JOINT lCollar
      {
        OFFSET 2.68224 19.2634 -4.8768
        CHANNELS 3 Zrotation Xrotation Yrotation
        JOINT lShldr
        {
          OFFSET 8.77824 -1.95073 1.46304
          CHANNELS 3 Zrotation Xrotation Yrotation
          JOINT lForeArm
          {
            OFFSET 28.1742 -1.7115 0.48768
            CHANNELS 3 Zrotation Xrotation Yrotation
            JOINT lHand
            {
              OFFSET 22.5879 0.773209 7.07136
              CHANNELS 3 Zrotation Xrotation Yrotation
              JOINT lThumb1
              {
                OFFSET 1.2192 -0.487915 3.41376
                CHANNELS 3 Zrotation Xrotation Yrotation
                JOINT lThumb2
                {
                  OFFSET 3.37035 -0.52449 3.41376
                  CHANNELS 3 Zrotation Xrotation Yrotation
                  End Site
                  {
                    OFFSET 1.78271 -1.18214 1.43049
                  }
                }
              }
              JOINT lIndex1
              {
                OFFSET 7.75947 0.938293 5.60832
                CHANNELS 3 Zrotation Xrotation Yrotation
                JOINT lIndex2
                {
                  OFFSET 2.54057 -0.884171 1.56538
                  CHANNELS 3 Zrotation Xrotation Yrotation
                  End Site
                  {
                    OFFSET 1.62519 -0.234802 1.16502
                  }
                }
              }
              JOINT lMid1
              {
                OFFSET 8.24714 1.18213 3.41376
                CHANNELS 3 Zrotation Xrotation Yrotation
                JOINT lMid2
                {
                  OFFSET 3.10165 -0.590103 1.0647
                  CHANNELS 3 Zrotation Xrotation Yrotation
                  End Site
                  {
                    OFFSET 2.48547 -0.328903 0.83742
                  }
                }
              }
              JOINT lRing1
              {
                OFFSET 8.82822 0.546677 1.51678
                CHANNELS 3 Zrotation Xrotation Yrotation
                JOINT lRing2
                {
                  OFFSET 2.60934 -0.819778 -0.0198488
                  CHANNELS 3 Zrotation Xrotation Yrotation
                  End Site
                  {
                    OFFSET 2.33842 -0.294052 0.168128
                  }
                }
              }
              JOINT lPinky1
              {
                OFFSET 8.27202 -0.0477905 -0.4584
                CHANNELS 3 Zrotation Xrotation Yrotation
                JOINT lPinky2
                {
                  OFFSET 1.82734 -0.647385 -0.700984
                  CHANNELS 3 Zrotation Xrotation Yrotation
                  End Site
                  {
                    OFFSET 1.69225 -0.51767 -0.607171
                  }
                }
              }
            }
          }
        }
      }
    }
  }
  JOINT rButtock
  {
    OFFSET -8.77824 4.35084 1.2192
    CHANNELS 3 Zrotation Xrotation Yrotation
    JOINT rThigh
    {
      OFFSET 0 -1.70687 -2.19456
      CHANNELS 3 Zrotation Xrotation Yrotation
      JOINT rShin
      {
        OFFSET 0 -36.8199 0.73152
        CHANNELS 3 Zrotation Xrotation Yrotation
        JOINT rFoot
        {
          OFFSET 0.73152 -45.1104 -5.12064
          CHANNELS 3 Zrotation Xrotation Yrotation
          End Site
          {
            OFFSET -1.1221 -3.69964 12.103
          }
        }
      }
    }
  }
  JOINT lButtock
  {
    OFFSET 8.77824 4.35084 1.2192
    CHANNELS 3 Zrotation Xrotation Yrotation
    JOINT lThigh
    {
      OFFSET 0 -1.70687 -2.19456
      CHANNELS 3 Zrotation Xrotation Yrotation
      JOINT lShin
      {
        OFFSET 0 -36.8199 0.73152
        CHANNELS 3 Zrotation Xrotation Yrotation
        JOINT lFoot
        {
          OFFSET -0.73152 -45.1104 -5.12064
          CHANNELS 3 Zrotation Xrotation Yrotation
          End Site
          {
            OFFSET 1.1221 -3.69964 12.103
          }
        }
      }
    }
  }
}
MOTION
Frames:	8
Frame Time:	0.00833333
7.4444 84.7178 35.9332 0.0 0.0 0.0 -0.462531 -0.00207376 -0.013201 -0.127532 -0.0031585 -0.0220954 9.66824e-15 -1.59028e-15 -3.10601e-17 2.88983e-14 -6.36111e-15 -4.50372e-17 -0.0 0.0 0.0 -0.0 0.0 0.0 4.81939e-15 4.65902e-18 2.48481e-16 1.03761e-13 3.91357e-16 9.93923e-16 1.75537e-12 -5.2181e-13 -1.27222e-14 2.01078e-11 5.45714e-13 -2.8625e-14 4.74263e-11 4.93217e-14 -6.04305e-14 8.18925e-11 8.90555e-14 -9.22361e-14 4.7432e-11 5.1684e-14 -6.67917e-14 7.73091 5.47488 0.417314 4.74254e-11 4.96962e-14 -5.725e-14 2.90554 0.965183 0.102902 4.7436e-11 4.95968e-14 -5.24792e-14 10.2786 0.731801 0.0259123 4.74243e-11 4.81059e-14 -3.81667e-14 2.22167 -0.733487 -0.20892 4.7226e-15 3.88251e-18 -2.48481e-16 9.9852e-14 2.11209e-16 -3.97569e-16 1.75914e-12 5.27773e-13 -3.49861e-14 2.01012e-11 -5.13138e-13 2.8625e-14 4.74226e-11 3.05636e-14 -4.45278e-14 8.18997e-11 5.40694e-14 -8.82604e-14 4.74201e-11 3.22031e-14 -2.8625e-14 -7.73091 5.47488 -0.417314 4.7423e-11 3.06128e-14 -5.08889e-14 -2.90554 0.965183 -0.102902 4.74172e-11 3.06128e-14 -4.92986e-14 -10.2786 0.731801 -0.0259123 4.74258e-11 3.1408e-14 -6.04305e-14 -2.22167 -0.733487 0.20892 -2.03217e-16 0.0 -3.88251e-19 0.172398 -2.4816 -0.0258961 -0.00786766 -1.0571 -0.0680539 -0.522486 3.53839 0.132391 2.03217e-16 0.0 3.88251e-19 -0.875816 -4.26242 0.0710569 0.00283213 2.16851 0.0189667 0.527688 2.09369 -0.103291
7.62977 83.679 34.0486 1.9366 -1.4668 5.2086 -2.10171 -1.36178 -1.31852 0.882092 -0.502107 -0.365314 -2.38473 3.12508 -2.7959 3.03401 -5.52914 -4.87369 -0.0 0.0 0.0 -0.0 0.0 0.0 4.59781e-14 -1.61151e-15 -3.47365e-14 22.8016 0.913802 1.11926 -2.46474 -0.909132 4.04828 0.00746973 1.91736 0.268923 -5.97814e-11 -4.75025e-10 -1.50411e-10 -1.03523e-10 -8.22012e-10 -2.59924e-10 -5.97771e-11 -4.75023e-10 -1.50421e-10 7.73091 5.47488 0.417314 -5.97823e-11 -4.75024e-10 -1.50409e-10 2.90554 0.965183 0.102902 -5.97726e-11 -4.75024e-10 -1.50406e-10 10.2786 0.731801 0.0259123 -5.97833e-11 -4.75025e-10 -1.50395e-10 2.22167 -0.733487 -0.20892 4.5924e-14 -1.61221e-15 -3.51961e-14 -24.1595 -0.519958 1.85427 4.93056 -2.40269 -7.51669 -0.00597361 1.7168 -0.240891 -1.09937e-10 3.94854e-10 -2.58105e-10 -1.91098e-10 6.82818e-10 -4.45769e-10 -1.09941e-10 3.94857e-10 -2.58091e-10 -7.73091 5.47488 -0.417314 -1.09937e-10 3.94855e-10 -2.58111e-10 -2.90554 0.965183 -0.102902 -1.09944e-10 3.94855e-10 -2.58111e-10 -10.2786 0.731801 -0.0259123 -1.09935e-10 3.94856e-10 -2.5812e-10 -2.22167 -0.733487 0.20892 -2.03217e-16 0.0 -3.88251e-19 -2.59041 -3.669 -0.797718 -0.000495854 3.23326 0.023397 -0.709489 0.27951 -3.73238 2.03217e-16 0.0 3.88251e-19 -0.349618 -5.02101 0.148375 -0.00074026 5.08094 -0.0368966 0.488696 -1.80542 0.687158
7.64274 83.6893 34.0515 2.0026 -1.439 5.2066 -3.91004 -2.79984 -2.70073 1.94324 -1.02638 -0.72815 -4.57212 6.3965 -5.78391 5.20419 -11.2365 -10.1853 -0.0 0.0 0.0 -0.0 0.0 0.0 9.21254e-14 -4.96709e-15 -7.3423e-14 46.8684 1.8739 2.30444 -4.93304 -1.85613 8.33451 -0.00424318 3.94245 0.553977 -1.94671e-10 -9.91666e-10 -3.0676e-10 -3.36739e-10 -1.71607e-09 -5.30018e-10 -1.94668e-10 -9.91664e-10 -3.06774e-10 7.73091 5.47488 0.417314 -1.94671e-10 -9.91665e-10 -3.06759e-10 2.90554 0.965183 0.102902 -1.94663e-10 -9.91665e-10 -3.06758e-10 10.2786 0.731801 0.0259123 -1.94672e-10 -9.91665e-10 -3.06751e-10 2.22167 -0.733487 -0.20892 9.21167e-14 -4.96773e-15 -7.38454e-14 -49.6592 -1.08197 3.81479 9.46097 -4.80276 -15.5011 0.00346557 3.54174 -0.497693 -2.97565e-10 8.14024e-10 -5.53968e-10 -5.16575e-10 1.40764e-09 -9.56671e-10 -2.97569e-10 8.14028e-10 -5.53955e-10 -7.73091 5.47488 -0.417314 -2.97565e-10 8.14026e-10 -5.53973e-10 -2.90554 0.965183 -0.102902 -2.97573e-10 8.14026e-10 -5.53974e-10 -10.2786 0.731801 -0.0259123 -2.97563e-10 8.14026e-10 -5.53982e-10 -2.22167 -0.733487 0.20892 -2.03217e-16 0.0 -3.88251e-19 -5.55438 -4.92923 -1.64091 -0.00775772 7.77931 0.121099 -1.38259 -3.11897 -7.83261 2.03217e-16 0.0 3.88251e-19 0.201533 -5.82866 0.228613 0.00170905 8.16154 -0.0966183 0.564859 -5.92541 1.52947
7.64883 83.6959 34.0461 2.0427 -1.4299 5.2411 -5.56618 -4.07267 -3.93799 2.8834 -1.49978 -1.05207 -6.23255 9.2854 -8.48722 6.21742 -16.0983 -15.1608 -0.0 0.0 0.0 -0.0 0.0 0.0 1.28296e-13 -4.84385e-15 -1.04706e-13 68.2978 2.73722 3.3612 -7.01166 -2.67299 12.1567 -0.0318175 5.75159 0.810398 -2.74197e-10 -1.42517e-09 -4.51113e-10 -4.74355e-10 -2.46622e-09 -7.79588e-10 -2.74195e-10 -1.42517e-09 -4.5113e-10 7.73091 5.47488 0.417314 -2.74198e-10 -1.42517e-09 -4.51112e-10 2.90554 0.965183 0.102902 -2.7419e-10 -1.42517e-09 -4.51113e-10 10.2786 0.731801 0.0259123 -2.74199e-10 -1.42517e-09 -4.51109e-10 2.22167 -0.733487 -0.20892 1.28327e-13 -4.84439e-15 -1.05091e-13 -72.3778 -1.55334 5.56464 12.9438 -6.71291 -22.6943 0.0255354 5.15003 -0.725276 -4.24657e-10 1.1845e-09 -7.74226e-10 -7.37095e-10 2.04835e-09 -1.33713e-09 -4.24662e-10 1.18451e-09 -7.74215e-10 -7.73091 5.47488 -0.417314 -4.24657e-10 1.1845e-09 -7.7423e-10 -2.90554 0.965183 -0.102902 -4.24666e-10 1.1845e-09 -7.74233e-10 -10.2786 0.731801 -0.0259123 -4.24656e-10 1.1845e-09 -7.7424e-10 -2.22167 -0.733487 0.20892 -2.03217e-16 0.0 -3.88251e-19 -8.21246 -6.0398 -2.34955 -0.0274268 11.8139 0.210626 -2.39849 -6.11165 -11.5277 2.03217e-16 0.0 3.88251e-19 0.708961 -6.53813 0.303671 0.00942343 10.9058 -0.150886 0.736785 -9.59644 2.29909
7.66375 83.7012 34.0527 2.1338 -1.453 5.2993 -6.70978 -4.94059 -4.80437 3.53361 -1.84621 -1.2784 -7.22719 11.3037 -10.3847 6.40275 -19.3153 -18.7805 -0.0 0.0 0.0 -0.0 0.0 0.0 1.39523e-13 3.97647e-15 -1.17482e-13 83.2084 3.36252 4.09374 -8.38597 -3.21664 14.8075 -0.0608482 7.02134 0.991805 -2.15315e-10 -1.65085e-09 -5.65474e-10 -3.72972e-10 -2.85659e-09 -9.77846e-10 -2.15315e-10 -1.65085e-09 -5.65493e-10 7.73091 5.47488 0.417314 -2.15317e-10 -1.65085e-09 -5.65474e-10 2.90554 0.965183 0.102902 -2.15309e-10 -1.65085e-09 -5.65476e-10 10.2786 0.731801 0.0259123 -2.15318e-10 -1.65085e-09 -5.65474e-10 2.22167 -0.733487 -0.20892 1.3958e-13 3.97608e-15 -1.1783e-13 -88.2195 -1.80471 6.78589 15.0893 -7.86793 -27.7727 0.0476409 6.21706 -0.87723 -4.00409e-10 1.43325e-09 -8.05472e-10 -6.9522e-10 2.47876e-09 -1.39149e-09 -4.00414e-10 1.43325e-09 -8.05463e-10 -7.73091 5.47488 -0.417314 -4.00408e-10 1.43325e-09 -8.05475e-10 -2.90554 0.965183 -0.102902 -4.00419e-10 1.43325e-09 -8.05479e-10 -10.2786 0.731801 -0.0259123 -4.00408e-10 1.43325e-09 -8.05485e-10 -2.22167 -0.733487 0.20892 -2.03217e-16 0.0 -3.88251e-19 -10.032 -6.78021 -2.71444 -0.0483138 14.57 0.275075 -3.35376 -8.2214 -14.1292 2.03217e-16 0.0 3.88251e-19 1.10285 -7.00218 0.365285 0.0179773 12.809 -0.18948 0.917272 -12.1523 2.85429
7.67251 83.7075 34.061 2.191 -1.466 5.3373 -7.06367 -5.23614 -5.14933 3.782 -2.01904 -1.36919 -7.58748 12.1708 -11.0928 6.3797 -20.5836 -20.1619 -0.0 0.0 0.0 -0.0 0.0 0.0 1.09709e-13 3.00324e-14 -1.01552e-13 89.0264 3.65451 4.3715 -8.89045 -3.41352 15.8099 -0.0747227 7.53341 1.06536 1.02113e-10 -1.5675e-09 -6.68067e-10 1.74722e-10 -2.71189e-09 -1.15687e-09 1.02112e-10 -1.56749e-09 -6.68084e-10 7.73091 5.47488 0.417314 1.02111e-10 -1.56749e-09 -6.68067e-10 2.90554 0.965183 0.102902 1.02119e-10 -1.56749e-09 -6.68069e-10 10.2786 0.731801 0.0259123 1.0211e-10 -1.56749e-09 -6.68068e-10 2.22167 -0.733487 -0.20892 1.09771e-13 3.00323e-14 -1.01861e-13 -94.467 -1.74919 7.26525 15.891 -8.29045 -29.8211 0.0557034 6.51581 -0.919997 -1.09315e-10 1.53014e-09 -5.10283e-10 -1.90723e-10 2.64701e-09 -8.82696e-10 -1.0932e-10 1.53014e-09 -5.10273e-10 -7.73091 5.47488 -0.417314 -1.09315e-10 1.53014e-09 -5.10284e-10 -2.90554 0.965183 -0.102902 -1.09325e-10 1.53014e-09 -5.10288e-10 -10.2786 0.731801 -0.0259123 -1.09314e-10 1.53014e-09 -5.10292e-10 -2.22167 -0.733487 0.20892 -2.03217e-16 0.0 -3.88251e-19 -10.6299 -6.99258 -2.56162 -0.0569338 15.5202 0.300717 -3.82113 -9.22348 -15.124 2.03217e-16 0.0 3.88251e-19 1.34968 -7.11528 0.406562 0.0221237 13.5333 -0.20476 1.00312 -13.1519 3.08203
7.62468 83.7388 34.1359 2.0494 -1.6302 5.1018 -6.84084 -5.12501 -5.12003 3.74486 -2.06774 -1.36304 -7.56463 12.2328 -10.9318 6.43303 -20.5579 -19.8464 -0.0 0.0 0.0 -0.0 0.0 0.0 5.08701e-14 6.81584e-14 -6.52511e-14 88.3578 3.70936 4.32366 -8.79953 -3.37282 15.6327 -0.0736705 7.50451 1.06118 6.01133e-10 -1.26426e-09 -7.60816e-10 1.03589e-09 -2.18647e-09 -1.31965e-09 6.01131e-10 -1.26426e-09 -7.60828e-10 7.73091 5.47488 0.417314 6.01131e-10 -1.26426e-09 -7.60814e-10 2.90554 0.965183 0.102902 6.01139e-10 -1.26426e-09 -7.60817e-10 10.2786 0.731801 0.0259123 6.01129e-10 -1.26426e-09 -7.60815e-10 2.22167 -0.733487 -0.20892 5.09234e-14 6.81588e-14 -6.55213e-14 -93.8668 -1.47562 7.21462 15.8468 -8.283 -29.6867 0.0511064 6.26636 -0.884436 3.69765e-10 1.51767e-09 1.51319e-11 6.39681e-10 2.62647e-09 2.32745e-11 3.69761e-10 1.51768e-09 1.51432e-11 -7.73091 5.47488 -0.417314 3.69764e-10 1.51767e-09 1.51327e-11 -2.90554 0.965183 -0.102902 3.69755e-10 1.51768e-09 1.51304e-11 -10.2786 0.731801 -0.0259123 3.69766e-10 1.51768e-09 1.51267e-11 -2.22167 -0.733487 0.20892 -2.03217e-16 0.0 -3.88251e-19 -10.3536 -6.82815 -2.04006 -0.0535636 15.1814 0.297555 -3.83925 -9.46501 -14.9488 2.03217e-16 0.0 3.88251e-19 1.49019 -6.97806 0.433288 0.0217894 13.4156 -0.202999 0.995603 -13.0415 3.06796
7.57883 83.7364 34.1534 1.8322 -1.6013 5.0482 -6.40956 -4.869 -4.93526 3.5959 -2.06033 -1.31605 -7.3834 11.9613 -10.416 6.51636 -19.9863 -18.8391 -0.0 0.0 0.0 -0.0 0.0 0.0 -9.78259e-15 1.03017e-13 -2.52728e-14 85.0948 3.67401 4.14337 -8.47041 -3.2372 14.9855 -0.0666495 7.26385 1.02656 1.06915e-09 -9.01992e-10 -8.01275e-10 1.84371e-09 -1.55903e-09 -1.39177e-09 1.06915e-09 -9.0199e-10 -8.01283e-10 7.73091 5.47488 0.417314 1.06914e-09 -9.01991e-10 -8.01272e-10 2.90554 0.965183 0.102902 1.06915e-09 -9.0199e-10 -8.01275e-10 10.2786 0.731801 0.0259123 1.06914e-09 -9.01988e-10 -8.01273e-10 2.22167 -0.733487 -0.20892 -9.744e-15 1.03018e-13 -2.55054e-14 -90.5224 -1.11989 6.95329 15.4615 -8.10085 -28.6672 0.0425068 5.81481 -0.82012 8.36089e-10 1.43176e-09 5.33724e-10 1.44802e-09 2.47882e-09 9.17537e-10 8.36085e-10 1.43176e-09 5.33737e-10 -7.73091 5.47488 -0.417314 8.36088e-10 1.43176e-09 5.33727e-10 -2.90554 0.965183 -0.102902 8.36079e-10 1.43176e-09 5.33726e-10 -10.2786 0.731801 -0.0259123 8.3609e-10 1.43176e-09 5.33723e-10 -2.22167 -0.733487 0.20892 -2.03217e-16 0.0 -3.88251e-19 -9.75953 -6.53134 -1.42346 -0.0458066 14.3525 0.282954 -3.66265 -9.36129 -14.3147 2.03217e-16 0.0 3.88251e-19 1.56584 -6.75253 0.456176 0.0196062 12.9637 -0.194447 0.951253 -12.488 2.95954
